<?xml version="1.0" encoding="utf-8"?>
<!-- Generator: Adobe Illustrator 24.1.0, SVG Export Plug-In . SVG Version: 6.00 Build 0)  -->
<svg version="1.1" id="Слой_1" xmlns="http://www.w3.org/2000/svg" xmlns:xlink="http://www.w3.org/1999/xlink" x="0px" y="0px"
	 viewBox="0 0 43 43" style="enable-background:new 0 0 43 43;" xml:space="preserve">
<style type="text/css">
	.st0{fill:#7FC2EF;}
	.st1{fill-rule:evenodd;clip-rule:evenodd;fill:#7FC2EF;}
</style>
<g id="_">
	<g id="Фигура_619_копия_2">
		<path class="st0" d="M21.5,2c0.3,0,0.6,0.1,0.8,0.2L23.9,3c0.8,0.4,1.8,0.6,2.7,0.6h0.2h0.1l0.1,0l1.6-0.1l0.2,0
			c0.6,0,1.1,0.3,1.5,0.7l1.1,1.3c0.6,0.8,1.5,1.4,2.5,1.8L35.2,8l0,0l0,0c0.6,0.2,1,0.7,1.2,1.3l0.4,1.7c0.3,1,0.8,1.9,1.5,2.6
			l1.2,1.2c0.4,0.4,0.6,1,0.5,1.6l-0.3,1.7c-0.2,1-0.1,2.1,0.3,3.1l0.6,1.6c0.2,0.6,0.1,1.2-0.2,1.7l-1,1.5
			c-0.6,0.9-0.9,1.9-0.9,2.9l-0.1,1.7c0,0.6-0.4,1.2-0.9,1.5l-1.4,0.9c-0.9,0.6-1.6,1.4-2,2.3L33.6,37c-0.3,0.5-0.8,0.9-1.4,1
			l-1.6,0.3c-1,0.2-2,0.6-2.8,1.3l-1.3,1.1C26,40.9,25.6,41,25.2,41c-0.2,0-0.3,0-0.5-0.1L23,40.5c-0.5-0.1-1-0.2-1.5-0.2
			c-0.5,0-1,0.1-1.5,0.2l-1.6,0.4C18.2,41,18,41,17.8,41c-0.4,0-0.9-0.2-1.2-0.4l-1.3-1.1c-0.8-0.7-1.8-1.1-2.8-1.3L10.8,38
			c-0.6-0.1-1.1-0.5-1.4-1l-0.8-1.5c-0.5-0.9-1.2-1.7-2-2.2l-1.5-1c-0.5-0.3-0.8-0.9-0.9-1.5l-0.1-1.7c-0.1-1-0.4-2-0.9-2.9
			l-0.9-1.5c-0.3-0.5-0.4-1.1-0.2-1.7l0.6-1.6c0.4-1,0.5-2,0.3-3.1l-0.3-1.7c-0.1-0.6,0.1-1.2,0.5-1.6l1.2-1.2
			C5.3,12.9,5.8,12,6.1,11l0.4-1.7C6.7,8.7,7.1,8.2,7.7,8l1.6-0.6c1-0.4,1.8-1,2.5-1.8l1.1-1.3c0.4-0.4,0.9-0.7,1.5-0.7h0.1l1.6,0.1
			l0.1,0h0.1l0.2,0c0.9,0,1.9-0.2,2.7-0.6l1.5-0.8C20.9,2.1,21.2,2,21.5,2 M21.5,0c-0.6,0-1.2,0.1-1.8,0.4l-1.5,0.8
			c-0.5,0.3-1.1,0.4-1.8,0.4c0,0,0,0,0,0h-0.2l-1.7-0.1h-0.2c0,0,0,0,0,0c-1.2,0-2.3,0.5-3,1.4l-1.1,1.3c-0.4,0.5-1,1-1.6,1.2L7,6.1
			C5.8,6.6,4.9,7.5,4.6,8.8l-0.4,1.7c-0.2,0.7-0.5,1.3-1,1.8l-1.2,1.2c-0.9,0.9-1.3,2.1-1.1,3.3l0.3,1.7c0.1,0.7,0,1.4-0.2,2
			l-0.6,1.6c-0.4,1.2-0.3,2.5,0.4,3.5l1,1.5c0.4,0.6,0.6,1.2,0.6,1.9l0.1,1.7C2.3,32,3,33.2,4,33.9l1.4,1c0.6,0.4,1,0.9,1.4,1.5
			l0.8,1.6c0.6,1.1,1.6,1.9,2.9,2.1l1.7,0.3c0.7,0.1,1.3,0.4,1.9,0.8l1.3,1.1c0.7,0.6,1.6,0.9,2.5,0.9c0.3,0,0.7,0,1-0.1l1.6-0.4
			c0.3-0.1,0.7-0.1,1-0.1c0.3,0,0.7,0,1,0.1l1.6,0.4c0.3,0.1,0.7,0.1,1,0.1c0.9,0,1.8-0.3,2.5-0.9L29,41c0.5-0.4,1.2-0.7,1.9-0.8
			l1.6-0.3c1.2-0.2,2.3-1,2.9-2.1l0.8-1.6c0.3-0.6,0.8-1.1,1.4-1.5l1.4-0.9c1-0.7,1.7-1.8,1.8-3.1l0.1-1.7c0-0.7,0.3-1.3,0.6-1.9
			l1-1.5c0.7-1,0.8-2.3,0.4-3.5l-0.6-1.6c-0.2-0.6-0.3-1.3-0.2-2l0.3-1.7c0.2-1.2-0.2-2.5-1.1-3.3l-1.2-1.2c-0.5-0.5-0.8-1.1-1-1.8
			l-0.4-1.7c-0.3-1.2-1.2-2.2-2.4-2.6l-1.6-0.7c-0.6-0.2-1.2-0.7-1.6-1.2L31.7,3c-0.7-0.9-1.8-1.4-3-1.4c0,0,0,0,0,0h-0.2l-1.7,0.1
			h-0.2c-0.6,0-1.2-0.1-1.8-0.4l-1.5-0.8C22.7,0.1,22.1,0,21.5,0L21.5,0z"/>
	</g>
	<path id="_2" class="st1" d="M19.9,23.7h3l0.7-11h-4.5L19.9,23.7z M21.4,29.7c0.6,0,1.2-0.2,1.6-0.6c0.4-0.4,0.7-1,0.7-1.6
		c0-0.6-0.2-1.1-0.6-1.5c-1-0.8-2.4-0.8-3.3,0c-0.4,0.4-0.7,0.9-0.6,1.5c0,0.6,0.2,1.2,0.7,1.6C20.2,29.5,20.8,29.7,21.4,29.7
		L21.4,29.7L21.4,29.7z"/>
</g>
</svg>
