<?xml version="1.0" encoding="utf-8"?>
<!-- Generator: Adobe Illustrator 24.1.0, SVG Export Plug-In . SVG Version: 6.00 Build 0)  -->
<svg version="1.1" id="Слой_1" xmlns="http://www.w3.org/2000/svg" xmlns:xlink="http://www.w3.org/1999/xlink" x="0px" y="0px"
	 viewBox="0 0 23 24" style="enable-background:new 0 0 23 24;" xml:space="preserve">
<style type="text/css">
	.st0{fill-rule:evenodd;clip-rule:evenodd;fill:#FFFFFF;}
</style>
<g id="увеличить">
	<path id="увеличить-2" class="st0" d="M5.6,9.2c0.1-4.8,4-8.6,8.8-8.6c4.8,0.1,8.6,4,8.6,8.8C22.9,14.2,19,18,14.2,18
		C9.4,18,5.5,14.1,5.6,9.2C5.6,9.2,5.6,9.2,5.6,9.2z M7.9,9.2c0,3.5,2.9,6.3,6.4,6.3s6.3-2.9,6.3-6.4c0-3.5-2.9-6.3-6.4-6.3
		C10.7,2.8,7.9,5.6,7.9,9.2C7.9,9.2,7.9,9.2,7.9,9.2L7.9,9.2z M0.1,21.7l7.2-7.2c0,0,0.4,0.5,0.7,0.9c0.4,0.4,0.9,0.8,0.9,0.8
		l-7.2,7.2L0.1,21.7z"/>
</g>
</svg>
