<?xml version="1.0" encoding="utf-8"?>
<!-- Generator: Adobe Illustrator 24.1.0, SVG Export Plug-In . SVG Version: 6.00 Build 0)  -->
<svg version="1.1" id="Слой_1" xmlns="http://www.w3.org/2000/svg" xmlns:xlink="http://www.w3.org/1999/xlink" x="0px" y="0px"
	 viewBox="0 0 17 17" style="enable-background:new 0 0 17 17;" xml:space="preserve">
<style type="text/css">
	.st0{fill-rule:evenodd;clip-rule:evenodd;fill:#73C864;}
</style>
<g id="телефон">
	<path id="телефон-2" class="st0" d="M16.7,15.4L16.1,16l-0.1,0.2c-0.3,0.2-0.6,0.4-1,0.5c-0.3,0.1-0.7,0.2-1,0.3h-0.3
		c-1,0-4.6-0.3-8.9-4.7C1.1,8.7-0.3,6,0.1,3.1c0-0.3,0.1-0.7,0.3-1c0.1-0.4,0.3-0.7,0.6-1l0-0.1H1l0.7-0.7C1.8,0.1,2.1,0,2.3,0
		C2.6,0,2.8,0.1,3,0.3L5.7,3c0.4,0.4,0.3,1,0,1.4L4.2,5.9C4.1,6,4.1,6.1,4.1,6.2l0.2,0.4C5,7.9,5.9,9.1,6.9,10.1
		c1,1,2.2,1.9,3.5,2.5l0.4,0.3c0.1,0,0.2,0,0.3-0.1l1.5-1.5c0.2-0.2,0.4-0.3,0.7-0.3c0.2,0,0.5,0.1,0.6,0.3l2.8,2.8l0,0
		c0.2,0.1,0.3,0.4,0.3,0.6C17,15,16.9,15.2,16.7,15.4L16.7,15.4L16.7,15.4z"/>
</g>
</svg>
